<svg width="25" height="22" viewBox="0 0 25 22" fill="none" xmlns="http://www.w3.org/2000/svg">
<path d="M0.306641 10.4609C0.306641 10.1777 0.433594 9.88477 0.697266 9.66992L10.873 1.125C11.7227 0.412109 12.7969 0.412109 13.6465 1.125L18.2754 5.01172V3.30273C18.2754 2.86328 18.5684 2.58984 18.998 2.58984H20.3457C20.7852 2.58984 21.0684 2.86328 21.0684 3.30273V7.36523L23.8125 9.66992C24.0664 9.88477 24.1934 10.1484 24.1934 10.4805C24.1934 11.0469 23.7539 11.4082 23.1777 11.4082C22.875 11.4082 22.6016 11.2422 22.3672 11.0469L12.6895 2.91211C12.416 2.67773 12.1035 2.67773 11.8301 2.91211L2.14258 11.0469C1.89844 11.2422 1.625 11.4082 1.32227 11.4082C0.697266 11.4082 0.306641 10.9688 0.306641 10.4609ZM3.48047 19.2402V11.8184L11.6445 4.97266C12.0156 4.65039 12.4746 4.64062 12.8555 4.97266L21.0293 11.8184V19.2402C21.0293 20.6465 20.1406 21.4961 18.6953 21.4961H5.81445C4.35938 21.4961 3.48047 20.6465 3.48047 19.2402ZM14.8184 19.6602V13.4102C14.8184 12.9512 14.5254 12.6582 14.0664 12.6582H10.4531C9.99414 12.6582 9.69141 12.9512 9.69141 13.4102V19.6602H14.8184Z" fill="#7336D6"/>
</svg>
