<svg width="22" height="22" viewBox="0 0 22 22" fill="none" xmlns="http://www.w3.org/2000/svg">
<path d="M3.27148 0.451172H16.5527C18.6426 0.451172 19.7363 1.55469 19.7363 3.66406V13.8984H10.0391C8.62305 13.8984 7.92969 14.6504 7.92969 16.0664V18.8789C7.92969 20.1777 7.1875 20.9102 6.13281 20.9102C5.01953 20.9102 4.24805 20.1582 4.24805 18.8105V2.38477C4.24805 1.39844 3.99414 0.841797 3.27148 0.451172ZM0.664062 5.31445V3.03906C0.664062 2.42383 1.15234 1.98438 1.74805 1.98438C2.33398 1.98438 2.8125 2.42383 2.8125 3.03906V6.42773H1.80664C1.12305 6.42773 0.664062 5.98828 0.664062 5.31445ZM8.13477 5.63672C8.13477 5.98828 8.39844 6.27148 8.76953 6.27148H15.4004C15.752 6.27148 16.0254 5.98828 16.0254 5.63672C16.0254 5.29492 15.752 5.03125 15.4004 5.03125H8.76953C8.39844 5.03125 8.13477 5.29492 8.13477 5.63672ZM8.13477 8.98633C8.13477 9.32812 8.39844 9.60156 8.76953 9.60156H12.2852C12.6465 9.60156 12.9102 9.32812 12.9102 8.98633C12.9102 8.63477 12.6465 8.36133 12.2852 8.36133H8.76953C8.39844 8.36133 8.13477 8.63477 8.13477 8.98633ZM8.37891 21.4473C9.16992 20.6562 9.35547 19.6797 9.35547 18.498V16.4473C9.35547 15.7734 9.81445 15.334 10.498 15.334H20.6934C21.377 15.334 21.8359 15.7734 21.8359 16.4473V18.332C21.8359 20.334 20.5469 21.4473 18.6133 21.4473H8.37891Z" fill="#7336D6"/>
</svg>
